<svg xmlns="http://www.w3.org/2000/svg" viewBox="0 0 194.54 77.26"><defs><style>.cls-1{fill:#0000c8;}.cls-2{fill:#ff675f;}</style></defs><g id="Layer_2" data-name="Layer 2"><g id="Layer_1-2" data-name="Layer 1"><path class="cls-1" d="M99,48.32h-6V64.84H81.23V14.7a2,2,0,0,1,2-2H99c10.52,0,18.4,7.78,18.4,17.85S109.49,48.32,99,48.32Zm-.15-24.6H92.94V37.37h5.88a6.86,6.86,0,0,0,7.2-6.51c0-.1,0-.21,0-.31,0-3.9-3-6.83-7.21-6.83Z"></path><path class="cls-1" d="M117.73,46.48a19.35,19.35,0,1,1,19.53,19.17h-.18a19.17,19.17,0,0,1-19.35-19Zm27.51,0c0-5.21-3.52-8.81-8.16-8.81s-8.17,3.6-8.17,8.81,3.53,8.82,8.17,8.82,8.16-3.6,8.16-8.82Z"></path><path class="cls-1" d="M180.64,17.69a7,7,0,1,1,7,6.91h-.09A7,7,0,0,1,180.64,17.69Zm2.89,10.44h8.18a1.46,1.46,0,0,1,1.46,1.46h0V64.84H182V29.58a1.46,1.46,0,0,1,1.46-1.45Z"></path><path class="cls-1" d="M162.54,16.51V64.84h11.11V15a2,2,0,0,0-2-2,1.74,1.74,0,0,0-.39,0l-7.11,1.55A2,2,0,0,0,162.54,16.51Z"></path><path class="cls-1" d="M67.35,60.8a8.64,8.64,0,0,1-6.67,6.25l-50.35,10a8.81,8.81,0,0,1-1.62.16A8.68,8.68,0,0,1,0,68.61v-60A8.09,8.09,0,0,1,.16,7,8.68,8.68,0,0,1,10.33.16l50.4,10.05a8.69,8.69,0,0,1,6.83,6.88,6.07,6.07,0,0,0-6.73-4.51L27.42,17.36a8.18,8.18,0,0,0-6.89,6.46A5,5,0,0,0,20.3,25V51.85c0,.18,0,.28,0,.42a6.91,6.91,0,0,0,.15.91l0,.11a8.22,8.22,0,0,0,6.92,6.62l33.41,4.76h.08A6,6,0,0,0,67.35,60.8Z"></path><path class="cls-2" d="M67.66,17.79v.14c0,.26,0,.52,0,.78V58.56c0,.25,0,.51,0,.77v.14a8.24,8.24,0,0,1-.26,1.33,6,6,0,0,1-6.44,3.88h-.08L27.42,59.91a8.22,8.22,0,0,1-6.92-6.62,5.42,5.42,0,0,0,2.65,3.35,3,3,0,0,0,.36.18,5.57,5.57,0,0,0,.77.3l.08,0,.26.06.29.06.45.06a2.13,2.13,0,0,0,.44,0,2.9,2.9,0,0,0,.51,0,1.25,1.25,0,0,0,.19,0,1.88,1.88,0,0,0,.33-.05,2.66,2.66,0,0,0,.39-.07l16-4a5.53,5.53,0,0,0,4.19-5.35V29.42a5.5,5.5,0,0,0-3.79-5.22,2.64,2.64,0,0,0-.4-.12h0l-16-4a4.59,4.59,0,0,0-.51-.1,2.3,2.3,0,0,0-.45-.05,2.75,2.75,0,0,0-.4,0l-.48,0L25,20a5.49,5.49,0,0,0-4.43,3.84,8.18,8.18,0,0,1,6.89-6.46l33.41-4.78a6.07,6.07,0,0,1,6.73,4.51v0C67.6,17.33,67.64,17.56,67.66,17.79Z"></path></g></g></svg>